<?xml version="1.0" encoding="UTF-8"?>
<svg xmlns="http://www.w3.org/2000/svg" xmlns:xlink="http://www.w3.org/1999/xlink" width="1920" height="1080" viewBox="0 0 1920 1080">
<defs>
<g>
<g id="glyph-0-0">
<path d="M 1.714844 0 L 1.714844 -0.789062 C 1.714844 -0.851562 1.710938 -0.910156 1.707031 -0.960938 C 1.703125 -1.015625 1.691406 -1.058594 1.675781 -1.085938 C 1.660156 -1.121094 1.636719 -1.144531 1.605469 -1.160156 C 1.578125 -1.175781 1.535156 -1.183594 1.484375 -1.183594 C 1.4375 -1.183594 1.386719 -1.167969 1.332031 -1.140625 C 1.277344 -1.109375 1.222656 -1.070312 1.164062 -1.015625 C 1.164062 -1 1.167969 -0.984375 1.167969 -0.964844 C 1.167969 -0.945312 1.167969 -0.921875 1.167969 -0.898438 L 1.167969 0 L 0.941406 0 L 0.941406 -0.789062 C 0.941406 -0.851562 0.9375 -0.910156 0.933594 -0.960938 C 0.929688 -1.015625 0.917969 -1.058594 0.902344 -1.085938 C 0.886719 -1.121094 0.863281 -1.144531 0.832031 -1.160156 C 0.800781 -1.175781 0.761719 -1.183594 0.710938 -1.183594 C 0.660156 -1.183594 0.609375 -1.167969 0.554688 -1.136719 C 0.5 -1.105469 0.445312 -1.066406 0.394531 -1.019531 L 0.394531 0 L 0.164062 0 L 0.164062 -1.363281 L 0.394531 -1.363281 L 0.394531 -1.210938 C 0.457031 -1.273438 0.515625 -1.320312 0.574219 -1.351562 C 0.632812 -1.386719 0.699219 -1.402344 0.769531 -1.402344 C 0.851562 -1.402344 0.921875 -1.382812 0.984375 -1.347656 C 1.046875 -1.308594 1.09375 -1.25 1.125 -1.164062 C 1.195312 -1.242188 1.261719 -1.300781 1.328125 -1.339844 C 1.394531 -1.382812 1.464844 -1.402344 1.542969 -1.402344 C 1.601562 -1.402344 1.65625 -1.390625 1.703125 -1.375 C 1.75 -1.355469 1.792969 -1.324219 1.828125 -1.285156 C 1.867188 -1.242188 1.894531 -1.191406 1.914062 -1.128906 C 1.933594 -1.070312 1.945312 -0.992188 1.945312 -0.898438 L 1.945312 0 Z "/>
</g>
<g id="glyph-0-1">
<path d="M 1.289062 -0.679688 C 1.289062 -0.453125 1.234375 -0.273438 1.121094 -0.148438 C 1.011719 -0.0234375 0.863281 0.0390625 0.679688 0.0390625 C 0.492188 0.0390625 0.339844 -0.0273438 0.234375 -0.15625 C 0.125 -0.285156 0.0703125 -0.460938 0.0703125 -0.679688 C 0.0703125 -0.910156 0.125 -1.085938 0.238281 -1.210938 C 0.347656 -1.339844 0.496094 -1.402344 0.679688 -1.402344 C 0.863281 -1.402344 1.011719 -1.339844 1.121094 -1.210938 C 1.234375 -1.085938 1.289062 -0.910156 1.289062 -0.679688 M 1.050781 -0.679688 C 1.050781 -0.859375 1.019531 -0.988281 0.953125 -1.074219 C 0.890625 -1.160156 0.796875 -1.203125 0.679688 -1.203125 C 0.558594 -1.203125 0.46875 -1.160156 0.402344 -1.074219 C 0.339844 -0.988281 0.304688 -0.859375 0.304688 -0.679688 C 0.304688 -0.511719 0.339844 -0.378906 0.402344 -0.292969 C 0.46875 -0.203125 0.558594 -0.160156 0.679688 -0.160156 C 0.796875 -0.160156 0.890625 -0.203125 0.953125 -0.289062 C 1.019531 -0.375 1.050781 -0.507812 1.050781 -0.679688 Z "/>
</g>
<g id="glyph-0-2">
<path d="M 0.578125 0.0273438 C 0.453125 0.0273438 0.355469 -0.0078125 0.285156 -0.078125 C 0.214844 -0.152344 0.179688 -0.265625 0.179688 -0.417969 L 0.179688 -1.171875 L 0.0273438 -1.171875 L 0.0273438 -1.363281 L 0.179688 -1.363281 L 0.179688 -1.753906 L 0.410156 -1.753906 L 0.410156 -1.363281 L 0.832031 -1.363281 L 0.832031 -1.171875 L 0.410156 -1.171875 L 0.410156 -0.523438 C 0.410156 -0.457031 0.410156 -0.402344 0.414062 -0.363281 C 0.417969 -0.328125 0.425781 -0.292969 0.441406 -0.261719 C 0.457031 -0.230469 0.476562 -0.210938 0.507812 -0.195312 C 0.539062 -0.183594 0.582031 -0.175781 0.632812 -0.175781 C 0.671875 -0.175781 0.707031 -0.179688 0.742188 -0.191406 C 0.777344 -0.203125 0.804688 -0.210938 0.820312 -0.21875 L 0.832031 -0.21875 L 0.832031 -0.0117188 C 0.789062 0 0.746094 0.0078125 0.703125 0.015625 C 0.65625 0.0234375 0.617188 0.0273438 0.578125 0.0273438 Z "/>
</g>
<g id="glyph-0-3">
<path d="M 0.398438 0 L 0.171875 0 L 0.171875 -1.363281 L 0.398438 -1.363281 L 0.398438 0 M 0.417969 -1.59375 L 0.15625 -1.59375 L 0.15625 -1.828125 L 0.417969 -1.828125 Z "/>
</g>
<g id="glyph-0-4">
<path d="M 1.238281 0 L 1.007812 0 L 1.007812 -0.777344 C 1.007812 -0.839844 1.003906 -0.898438 1 -0.953125 C 0.992188 -1.003906 0.980469 -1.050781 0.964844 -1.082031 C 0.945312 -1.117188 0.917969 -1.140625 0.886719 -1.15625 C 0.851562 -1.175781 0.808594 -1.183594 0.75 -1.183594 C 0.691406 -1.183594 0.632812 -1.167969 0.574219 -1.136719 C 0.511719 -1.105469 0.453125 -1.066406 0.394531 -1.019531 L 0.394531 0 L 0.164062 0 L 0.164062 -1.363281 L 0.394531 -1.363281 L 0.394531 -1.210938 C 0.464844 -1.273438 0.53125 -1.320312 0.597656 -1.351562 C 0.664062 -1.386719 0.734375 -1.402344 0.808594 -1.402344 C 0.945312 -1.402344 1.046875 -1.355469 1.125 -1.269531 C 1.199219 -1.179688 1.238281 -1.050781 1.238281 -0.886719 Z "/>
</g>
<g id="glyph-0-5">
</g>
<g id="glyph-0-6">
<path d="M 0.757812 0.03125 C 0.539062 0.03125 0.371094 -0.03125 0.253906 -0.152344 C 0.132812 -0.273438 0.0703125 -0.449219 0.0703125 -0.671875 C 0.0703125 -0.894531 0.128906 -1.074219 0.246094 -1.203125 C 0.363281 -1.335938 0.515625 -1.402344 0.703125 -1.402344 C 0.789062 -1.402344 0.863281 -1.390625 0.929688 -1.363281 C 0.992188 -1.339844 1.050781 -1.300781 1.097656 -1.25 C 1.148438 -1.199219 1.183594 -1.132812 1.210938 -1.058594 C 1.238281 -0.984375 1.25 -0.890625 1.25 -0.78125 L 1.25 -0.65625 L 0.304688 -0.65625 C 0.304688 -0.5 0.34375 -0.378906 0.425781 -0.292969 C 0.503906 -0.210938 0.613281 -0.167969 0.753906 -0.167969 C 0.804688 -0.167969 0.855469 -0.175781 0.902344 -0.1875 C 0.953125 -0.195312 0.996094 -0.210938 1.035156 -0.230469 C 1.078125 -0.25 1.113281 -0.265625 1.140625 -0.285156 C 1.167969 -0.300781 1.191406 -0.316406 1.210938 -0.332031 L 1.222656 -0.332031 L 1.222656 -0.0820312 C 1.199219 -0.0742188 1.164062 -0.0585938 1.125 -0.0429688 C 1.085938 -0.0273438 1.046875 -0.015625 1.015625 -0.0078125 C 0.972656 0.0078125 0.929688 0.015625 0.894531 0.0234375 C 0.859375 0.0273438 0.8125 0.03125 0.757812 0.03125 M 1.027344 -0.832031 C 1.023438 -0.894531 1.019531 -0.949219 1.003906 -0.992188 C 0.992188 -1.039062 0.972656 -1.078125 0.949219 -1.105469 C 0.921875 -1.140625 0.886719 -1.167969 0.84375 -1.183594 C 0.804688 -1.203125 0.75 -1.210938 0.691406 -1.210938 C 0.628906 -1.210938 0.578125 -1.203125 0.535156 -1.183594 C 0.492188 -1.167969 0.453125 -1.140625 0.417969 -1.105469 C 0.382812 -1.070312 0.355469 -1.027344 0.339844 -0.984375 C 0.320312 -0.941406 0.308594 -0.890625 0.304688 -0.832031 Z "/>
</g>
<g id="glyph-0-7">
<path d="M 1.074219 -0.6875 C 1.074219 -0.847656 1.046875 -0.972656 1 -1.054688 C 0.949219 -1.140625 0.867188 -1.183594 0.757812 -1.183594 C 0.695312 -1.183594 0.632812 -1.167969 0.570312 -1.140625 C 0.503906 -1.109375 0.449219 -1.074219 0.394531 -1.027344 L 0.394531 -0.246094 C 0.453125 -0.21875 0.503906 -0.199219 0.550781 -0.1875 C 0.59375 -0.175781 0.644531 -0.167969 0.695312 -0.167969 C 0.8125 -0.167969 0.90625 -0.210938 0.972656 -0.292969 C 1.039062 -0.375 1.074219 -0.507812 1.074219 -0.6875 M 1.308594 -0.703125 C 1.308594 -0.480469 1.253906 -0.300781 1.148438 -0.164062 C 1.039062 -0.03125 0.902344 0.0390625 0.742188 0.0390625 C 0.667969 0.0390625 0.605469 0.0273438 0.550781 0.0117188 C 0.5 -0.0078125 0.445312 -0.03125 0.394531 -0.0625 L 0.382812 0 L 0.164062 0 L 0.164062 -1.898438 L 0.394531 -1.898438 L 0.394531 -1.21875 C 0.453125 -1.273438 0.515625 -1.316406 0.582031 -1.351562 C 0.652344 -1.382812 0.726562 -1.402344 0.8125 -1.402344 C 0.964844 -1.402344 1.089844 -1.339844 1.175781 -1.214844 C 1.265625 -1.09375 1.308594 -0.921875 1.308594 -0.703125 Z "/>
</g>
<g id="glyph-0-8">
<path d="M 1.214844 0 L 0.984375 0 L 0.984375 -0.140625 C 0.949219 -0.109375 0.917969 -0.0859375 0.894531 -0.0664062 C 0.867188 -0.046875 0.835938 -0.0273438 0.800781 -0.0117188 C 0.769531 0.00390625 0.734375 0.015625 0.699219 0.0234375 C 0.664062 0.0351562 0.625 0.0390625 0.578125 0.0390625 C 0.503906 0.0390625 0.4375 0.0234375 0.371094 -0.0078125 C 0.308594 -0.0390625 0.257812 -0.0859375 0.210938 -0.144531 C 0.167969 -0.203125 0.132812 -0.277344 0.109375 -0.367188 C 0.0859375 -0.457031 0.0703125 -0.554688 0.0703125 -0.671875 C 0.0703125 -0.789062 0.0859375 -0.894531 0.117188 -0.980469 C 0.148438 -1.070312 0.191406 -1.144531 0.246094 -1.210938 C 0.296875 -1.269531 0.355469 -1.316406 0.425781 -1.351562 C 0.496094 -1.382812 0.570312 -1.402344 0.648438 -1.402344 C 0.714844 -1.402344 0.777344 -1.394531 0.828125 -1.378906 C 0.875 -1.363281 0.929688 -1.339844 0.984375 -1.308594 L 0.984375 -1.898438 L 1.214844 -1.898438 L 1.214844 0 M 0.984375 -0.332031 L 0.984375 -1.117188 C 0.929688 -1.144531 0.878906 -1.164062 0.832031 -1.175781 C 0.789062 -1.1875 0.738281 -1.191406 0.6875 -1.191406 C 0.566406 -1.191406 0.476562 -1.148438 0.410156 -1.058594 C 0.34375 -0.96875 0.308594 -0.84375 0.308594 -0.675781 C 0.308594 -0.515625 0.335938 -0.394531 0.386719 -0.308594 C 0.4375 -0.222656 0.519531 -0.179688 0.632812 -0.179688 C 0.691406 -0.179688 0.753906 -0.195312 0.8125 -0.222656 C 0.875 -0.25 0.933594 -0.285156 0.984375 -0.332031 Z "/>
</g>
<g id="glyph-0-9">
<path d="M 0.984375 -0.371094 L 0.984375 -1.117188 C 0.929688 -1.144531 0.875 -1.164062 0.828125 -1.175781 C 0.78125 -1.1875 0.730469 -1.195312 0.683594 -1.195312 C 0.566406 -1.195312 0.476562 -1.152344 0.410156 -1.066406 C 0.34375 -0.980469 0.308594 -0.859375 0.308594 -0.699219 C 0.308594 -0.546875 0.335938 -0.433594 0.386719 -0.355469 C 0.4375 -0.273438 0.519531 -0.234375 0.632812 -0.234375 C 0.691406 -0.234375 0.753906 -0.246094 0.816406 -0.269531 C 0.878906 -0.292969 0.9375 -0.328125 0.984375 -0.371094 M 0.214844 0.21875 C 0.230469 0.226562 0.253906 0.234375 0.28125 0.246094 C 0.3125 0.253906 0.347656 0.265625 0.386719 0.277344 C 0.429688 0.285156 0.46875 0.296875 0.503906 0.300781 C 0.539062 0.308594 0.578125 0.3125 0.621094 0.3125 C 0.691406 0.3125 0.75 0.300781 0.800781 0.28125 C 0.847656 0.265625 0.886719 0.238281 0.914062 0.203125 C 0.941406 0.171875 0.960938 0.132812 0.96875 0.0898438 C 0.980469 0.046875 0.984375 -0.00390625 0.984375 -0.0625 L 0.984375 -0.179688 C 0.925781 -0.125 0.863281 -0.0859375 0.804688 -0.0625 C 0.746094 -0.0351562 0.671875 -0.0234375 0.582031 -0.0234375 C 0.425781 -0.0234375 0.300781 -0.0820312 0.210938 -0.195312 C 0.117188 -0.3125 0.0703125 -0.476562 0.0703125 -0.695312 C 0.0703125 -0.808594 0.0859375 -0.90625 0.121094 -0.996094 C 0.152344 -1.082031 0.195312 -1.15625 0.246094 -1.21875 C 0.300781 -1.277344 0.359375 -1.320312 0.429688 -1.355469 C 0.5 -1.386719 0.570312 -1.402344 0.648438 -1.402344 C 0.71875 -1.402344 0.777344 -1.394531 0.832031 -1.375 C 0.882812 -1.359375 0.933594 -1.335938 0.984375 -1.304688 L 1 -1.363281 L 1.214844 -1.363281 L 1.214844 -0.15625 C 1.214844 0.0742188 1.164062 0.246094 1.0625 0.355469 C 0.964844 0.460938 0.808594 0.515625 0.601562 0.515625 C 0.535156 0.515625 0.46875 0.511719 0.398438 0.5 C 0.328125 0.488281 0.261719 0.476562 0.203125 0.457031 L 0.203125 0.21875 Z "/>
</g>
</g>
</defs>
<g fill="rgb(40%, 40%, 40%)" fill-opacity="1">
<use xlink:href="#glyph-0-0" x="30" y="22.500977"/>
<use xlink:href="#glyph-0-1" x="32" y="22.500977"/>
<use xlink:href="#glyph-0-2" x="33" y="22.500977"/>
<use xlink:href="#glyph-0-3" x="34" y="22.500977"/>
<use xlink:href="#glyph-0-1" x="35" y="22.500977"/>
<use xlink:href="#glyph-0-4" x="36" y="22.500977"/>
<use xlink:href="#glyph-0-5" x="37" y="22.500977"/>
<use xlink:href="#glyph-0-6" x="38" y="22.500977"/>
<use xlink:href="#glyph-0-0" x="39" y="22.500977"/>
<use xlink:href="#glyph-0-7" x="41" y="22.500977"/>
<use xlink:href="#glyph-0-6" x="42" y="22.500977"/>
<use xlink:href="#glyph-0-8" x="43" y="22.500977"/>
<use xlink:href="#glyph-0-8" x="44" y="22.500977"/>
<use xlink:href="#glyph-0-3" x="45" y="22.500977"/>
<use xlink:href="#glyph-0-4" x="46" y="22.500977"/>
<use xlink:href="#glyph-0-9" x="47" y="22.500977"/>
</g>
</svg>
