<?xml version="1.0" encoding="UTF-8"?>
<svg xmlns="http://www.w3.org/2000/svg" xmlns:xlink="http://www.w3.org/1999/xlink" width="1920" height="1080" viewBox="0 0 1920 1080">
<defs>
<g>
<g id="glyph-0-0">
<path d="M 2.914062 -2.324219 C 2.972656 -2.207031 3.003906 -2.066406 3 -1.894531 C 2.996094 -1.726562 2.957031 -1.53125 2.882812 -1.3125 C 2.8125 -1.097656 2.71875 -0.90625 2.605469 -0.734375 C 2.496094 -0.5625 2.367188 -0.417969 2.226562 -0.304688 C 2.078125 -0.179688 1.921875 -0.0898438 1.757812 -0.03125 C 1.597656 0.0273438 1.429688 0.0546875 1.257812 0.0546875 C 1.082031 0.0546875 0.929688 0.0234375 0.808594 -0.0351562 C 0.6875 -0.09375 0.59375 -0.183594 0.535156 -0.304688 C 0.472656 -0.417969 0.441406 -0.5625 0.445312 -0.734375 C 0.449219 -0.902344 0.488281 -1.097656 0.5625 -1.3125 C 0.636719 -1.53125 0.730469 -1.726562 0.84375 -1.894531 C 0.953125 -2.058594 1.078125 -2.203125 1.222656 -2.324219 C 1.363281 -2.441406 1.515625 -2.527344 1.675781 -2.589844 C 1.839844 -2.648438 2.011719 -2.679688 2.1875 -2.679688 C 2.367188 -2.679688 2.515625 -2.648438 2.636719 -2.585938 C 2.761719 -2.523438 2.851562 -2.4375 2.914062 -2.324219 M 2.519531 -1.3125 C 2.578125 -1.484375 2.613281 -1.640625 2.621094 -1.773438 C 2.628906 -1.90625 2.613281 -2.019531 2.574219 -2.105469 C 2.539062 -2.199219 2.476562 -2.265625 2.394531 -2.308594 C 2.3125 -2.355469 2.207031 -2.378906 2.085938 -2.378906 C 1.960938 -2.378906 1.839844 -2.355469 1.730469 -2.3125 C 1.621094 -2.269531 1.515625 -2.199219 1.410156 -2.105469 C 1.3125 -2.015625 1.21875 -1.90625 1.136719 -1.769531 C 1.054688 -1.636719 0.984375 -1.480469 0.925781 -1.3125 C 0.808594 -0.96875 0.789062 -0.703125 0.875 -0.519531 C 0.957031 -0.339844 1.117188 -0.246094 1.363281 -0.246094 C 1.605469 -0.246094 1.828125 -0.339844 2.035156 -0.519531 C 2.242188 -0.703125 2.402344 -0.96875 2.519531 -1.3125 Z "/>
</g>
<g id="glyph-0-1">
<path d="M 1.773438 0 L 1.441406 0 L 1.515625 -0.21875 C 1.382812 -0.128906 1.265625 -0.0625 1.15625 -0.015625 C 1.050781 0.03125 0.9375 0.0546875 0.824219 0.0546875 C 0.738281 0.0546875 0.664062 0.0390625 0.597656 0.0117188 C 0.53125 -0.015625 0.480469 -0.0585938 0.445312 -0.121094 C 0.410156 -0.183594 0.390625 -0.257812 0.390625 -0.351562 C 0.394531 -0.445312 0.414062 -0.558594 0.460938 -0.691406 L 0.894531 -1.96875 L 1.226562 -1.96875 L 0.84375 -0.847656 C 0.808594 -0.742188 0.785156 -0.65625 0.769531 -0.589844 C 0.753906 -0.519531 0.75 -0.457031 0.757812 -0.40625 C 0.769531 -0.355469 0.792969 -0.320312 0.832031 -0.296875 C 0.871094 -0.273438 0.933594 -0.261719 1.019531 -0.261719 C 1.101562 -0.261719 1.195312 -0.285156 1.300781 -0.328125 C 1.410156 -0.375 1.511719 -0.433594 1.613281 -0.5 L 2.113281 -1.96875 L 2.441406 -1.96875 Z "/>
</g>
<g id="glyph-0-2">
<path d="M 0.824219 0.0390625 C 0.640625 0.0390625 0.519531 -0.0117188 0.453125 -0.117188 C 0.386719 -0.21875 0.390625 -0.378906 0.464844 -0.601562 L 0.835938 -1.695312 L 0.613281 -1.695312 L 0.707031 -1.96875 L 0.929688 -1.96875 L 1.121094 -2.535156 L 1.453125 -2.535156 L 1.261719 -1.96875 L 1.871094 -1.96875 L 1.777344 -1.695312 L 1.167969 -1.695312 L 0.851562 -0.757812 C 0.816406 -0.65625 0.792969 -0.582031 0.777344 -0.527344 C 0.761719 -0.472656 0.757812 -0.421875 0.765625 -0.375 C 0.773438 -0.335938 0.792969 -0.304688 0.832031 -0.28125 C 0.867188 -0.261719 0.925781 -0.253906 1.003906 -0.253906 C 1.054688 -0.253906 1.113281 -0.261719 1.167969 -0.277344 C 1.222656 -0.292969 1.265625 -0.304688 1.289062 -0.316406 L 1.308594 -0.316406 L 1.207031 -0.0195312 C 1.140625 0 1.070312 0.015625 1.003906 0.0234375 C 0.9375 0.0351562 0.875 0.0390625 0.824219 0.0390625 Z "/>
</g>
<g id="glyph-0-3">
<path d="M 2.242188 -1.035156 C 2.132812 -0.707031 1.964844 -0.449219 1.742188 -0.253906 C 1.519531 -0.0585938 1.289062 0.0390625 1.046875 0.0390625 C 0.949219 0.0390625 0.867188 0.0273438 0.800781 0.00390625 C 0.734375 -0.015625 0.667969 -0.0507812 0.605469 -0.0976562 L 0.324219 0.726562 L -0.0078125 0.726562 L 0.910156 -1.96875 L 1.242188 -1.96875 L 1.171875 -1.761719 C 1.277344 -1.835938 1.390625 -1.898438 1.507812 -1.949219 C 1.625 -2 1.742188 -2.023438 1.863281 -2.023438 C 2.085938 -2.023438 2.234375 -1.933594 2.300781 -1.757812 C 2.363281 -1.578125 2.347656 -1.335938 2.242188 -1.035156 M 1.890625 -1 C 1.964844 -1.222656 1.988281 -1.398438 1.960938 -1.523438 C 1.929688 -1.644531 1.835938 -1.707031 1.671875 -1.707031 C 1.578125 -1.707031 1.480469 -1.6875 1.378906 -1.644531 C 1.277344 -1.605469 1.175781 -1.550781 1.074219 -1.484375 L 0.695312 -0.367188 C 0.769531 -0.324219 0.832031 -0.296875 0.890625 -0.28125 C 0.945312 -0.265625 1.015625 -0.257812 1.09375 -0.257812 C 1.265625 -0.257812 1.421875 -0.320312 1.558594 -0.449219 C 1.695312 -0.574219 1.808594 -0.757812 1.890625 -1 Z "/>
</g>
</g>
</defs>
<g fill="rgb(10.980392%, 15.686275%, 20%)" fill-opacity="1">
<use xlink:href="#glyph-0-0" x="30" y="23.612305"/>
<use xlink:href="#glyph-0-1" x="33" y="23.612305"/>
<use xlink:href="#glyph-0-2" x="35" y="23.612305"/>
<use xlink:href="#glyph-0-3" x="36" y="23.612305"/>
<use xlink:href="#glyph-0-1" x="38" y="23.612305"/>
<use xlink:href="#glyph-0-2" x="40" y="23.612305"/>
</g>
</svg>
